<svg width="266" height="501" viewBox="0 0 266 501" fill="none" xmlns="http://www.w3.org/2000/svg">
<g opacity="0.5" clip-path="url(#clip0_33_733)">
<path fill-rule="evenodd" clip-rule="evenodd" d="M138.786 500.946C141.055 500.206 144.723 498.181 146.716 495.895C153.445 489.016 156.811 480.299 161.466 472.209C165.858 464.593 170.38 456.802 176.97 449.764C160.376 457.901 146.543 466.473 138.322 481.36C137.153 483.421 134.588 488.727 132.607 491.479C130.693 494.143 124.236 500.176 124.236 500.176C124.236 500.176 126.004 500.987 128.36 501.531C130.718 502.078 135.937 501.877 138.786 500.946Z" fill="white"/>
<path fill-rule="evenodd" clip-rule="evenodd" d="M187.811 441.376C174.375 442.8 162.729 445.26 153.412 449.686C152.907 451.137 149.454 461.003 148.178 464.743C156.767 455.631 171.825 448.049 185.097 442.486C185.263 442.418 187.071 441.673 187.811 441.376Z" fill="white"/>
<path fill-rule="evenodd" clip-rule="evenodd" d="M189.017 460.303C180.283 468.616 167.514 484.658 163.893 497.801C161.101 507.914 164.31 515.014 168.705 518.471C172.76 521.665 178.604 521.958 178.604 521.958C177.36 519.023 174.534 513.631 173.135 508.007C172.06 503.662 170.876 499.568 173.012 491.799C174.81 485.273 189.017 460.303 189.017 460.303Z" fill="white"/>
<path fill-rule="evenodd" clip-rule="evenodd" d="M212.199 414.923L189.363 410.764C187.777 425.461 194.318 433.988 201.341 436.51L212.199 414.923Z" fill="white"/>
<path fill-rule="evenodd" clip-rule="evenodd" d="M135.767 401.006C135.644 409.301 136.914 432.889 137.627 436.437C139.709 446.832 142.173 456.16 145.788 461.713C146.743 458.954 155.662 433.366 157.722 423.216C157.722 423.216 156.474 411.12 156.104 404.709L135.767 401.006Z" fill="white"/>
<path fill-rule="evenodd" clip-rule="evenodd" d="M130.313 489.3C131.788 486.932 134.499 481.428 135.952 478.929C138.774 473.986 140.683 471.567 144.718 467.475C144.718 467.475 141.487 462.579 140.401 458.768C135.049 463.831 131.815 470.166 129.243 478.206C128.313 481.1 123.446 496.353 123.446 496.353C124.48 495.331 128.458 492.29 130.313 489.3Z" fill="white"/>
<path fill-rule="evenodd" clip-rule="evenodd" d="M250.721 444.598C241.684 440.848 233.653 434.717 227.462 427.334C224.001 423.197 221.086 418.59 218.839 413.624C218.743 413.401 209.498 431.259 200.73 448.286L183.861 478.556L230.04 455.104L250.721 444.598Z" fill="white"/>
<path fill-rule="evenodd" clip-rule="evenodd" d="M157.599 508.24C163.782 479.154 181.973 461.424 193.418 452.173L196.045 447.112L199.316 440.598C195.201 442.013 191.013 443.559 186.822 445.301C186.776 445.321 186.736 445.34 186.691 445.36C176.054 453.543 170.333 463.401 164.325 473.838C159.626 481.992 155.668 491.081 148.275 498.482C146.413 500.403 144.092 501.567 140.945 503.241L138.555 519.842C138.555 519.842 156.208 514.786 157.599 508.24Z" fill="white"/>
<path fill-rule="evenodd" clip-rule="evenodd" d="M25.9989 436.035C25.1677 435.929 24.2452 435.621 23.303 434.981C18.4414 437.664 13.0841 439.855 8.11892 440.941C6.6513 441.264 2.47298 441.678 2.39898 441.686C1.77247 450.047 1.40002 458.957 1.40002 468.613C-1.44883 514.145 10.5534 556.858 22.1486 589.964L32.2467 542.375L32.2146 542.381C25.1554 516.62 23.2216 483.569 25.9989 436.035Z" fill="white"/>
<path fill-rule="evenodd" clip-rule="evenodd" d="M213.66 388.972C213.66 382.002 215.453 374.116 217.683 367.815C217.745 367.634 99.7916 390.508 99.7916 390.508C99.7916 390.508 217.774 411.343 217.74 411.257C214.972 404.364 213.66 396.843 213.66 388.972Z" fill="white"/>
<path fill-rule="evenodd" clip-rule="evenodd" d="M172.799 439.733C175.211 430.191 178.393 419.371 183.005 409.608L159.406 405.307C159.714 410.835 160.259 417.388 160.821 422.466C163.84 429.805 169.98 437.726 172.799 439.733Z" fill="white"/>
<path fill-rule="evenodd" clip-rule="evenodd" d="M109.299 396.186C109.206 396.884 109.028 398.325 108.966 398.79C105.974 420.883 105.759 444.174 109.692 463.541C110.345 466.545 111.265 471.142 112.634 475.051C115.197 482.376 121.523 493.254 121.523 493.254C122.707 489.152 124.932 479.999 126.646 474.564C130.003 463.974 132.882 454.329 134.702 441.76C135.006 439.363 133.994 431.94 133.671 427.845C132.855 417.322 132.31 408.306 132.492 400.408L109.299 396.186Z" fill="white"/>
<path fill-rule="evenodd" clip-rule="evenodd" d="M59.6171 419.422C61.0944 418.674 61.05 416.915 60.8506 415.628C60.5099 413.435 59.5306 410.472 59.0274 409.229C56.45 402.824 51.6378 398.829 50.0296 397.464C48.9098 396.516 46.7096 395.81 46.7096 395.81C45.7033 395.545 44.5884 395.606 43.6166 395.999C43.5623 396.021 43.5056 396.045 43.4488 396.072C42.7385 396.394 42.2748 396.775 41.8703 397.555C41.4633 398.334 40.9576 401.057 40.3064 401.65C40.1362 401.804 39.9833 401.907 39.8378 401.961C38.2 402.62 38.1827 397.46 38.1605 397.363C38.5305 396.991 40.3953 396.261 41.192 395.33C41.6409 394.703 43.2811 392.575 43.2861 391.345C43.175 389.497 40.6468 389.49 38.8709 390.205C38.8487 390.215 38.8241 390.223 38.7994 390.232C38.4171 389.649 37.7215 389.335 37.0161 389.502C36.9668 389.514 36.9174 389.529 36.8656 389.549C35.916 389.936 34.5791 391.723 34.5791 391.723C36.2885 388.282 33.553 384.258 29.8187 385.571L28.2056 381.834L25.9438 382.765L23.6696 383.662L25.1224 387.456C21.5212 389.095 22.3771 393.879 26.0128 395.165C26.0128 395.165 23.8003 394.808 22.8507 395.19C22.8014 395.21 22.7496 395.234 22.7101 395.259C22.0836 395.624 21.8073 396.339 21.9405 397.018C21.9159 397.025 21.8887 397.038 21.869 397.043C20.0956 397.758 18.2826 399.506 19.4937 400.914C20.3595 401.797 23.0282 402.189 23.788 402.329C25.0188 402.454 26.8687 401.687 27.3916 401.692C27.4434 401.78 31.0446 405.5 29.4068 406.161C29.2662 406.215 29.0837 406.247 28.8518 406.252C27.9712 406.282 25.702 404.676 24.8634 404.399C24.0273 404.117 23.4205 404.167 22.6904 404.424C22.6312 404.443 22.5745 404.466 22.5153 404.49C21.5484 404.88 20.7023 405.6 20.1646 406.495C20.1646 406.495 19.0793 408.514 18.9412 409.974C18.7414 412.065 18.0804 418.26 20.7147 424.644C21.2277 425.886 22.5966 428.687 23.8866 430.501C24.6464 431.562 25.8451 432.854 27.4311 432.366C27.4804 432.353 27.5347 432.334 27.5914 432.312C29.3204 431.616 33.8786 427.523 34.0488 427.347C34.3843 428.354 41.3917 433.518 42.6595 433.383C42.6127 433.572 49.5511 430.78 49.3809 430.677C50.3897 429.905 51.8055 421.341 51.3393 420.392C51.5934 420.4 57.73 420.186 59.4614 419.491C59.5185 419.466 59.5675 419.444 59.6171 419.422Z" fill="white"/>
<path fill-rule="evenodd" clip-rule="evenodd" d="M55.3415 439.261L81.8271 487.96C78.5295 473.991 77.0666 456.933 77.0937 440.263C77.1012 438.526 77.1381 436.82 77.2096 435.178C77.5082 428.383 77.6315 422.747 78.2361 416.348L76.0603 415.97C76.1715 414.238 76.6378 410.557 76.6153 410.582C71.4111 415.483 67.472 418.608 63.5035 420.637C62.8222 421.654 61.9519 422.283 61.2683 422.631C61.1328 422.695 60.9824 422.761 60.8199 422.83C59.6331 423.308 56.5106 423.548 54.6064 423.712C54.5743 425.56 54.3721 428.194 53.124 431.682L53.5236 436.168C54.229 437.443 54.7914 438.342 55.3415 439.261Z" fill="white"/>
<path fill-rule="evenodd" clip-rule="evenodd" d="M97.5115 514.141L109.023 474.845C107.869 470.738 106.806 466.231 105.915 461.59C101.772 438.078 103.589 415.827 105.19 402.334C94.0485 412.555 89.2091 415.467 81.4664 416.67C80.9534 422.387 80.5096 426.401 80.384 434.704C80.3615 436.368 80.3569 438.069 80.3615 439.777C80.3344 462.418 83.0256 486.025 89.5694 501.729L97.5115 514.141Z" fill="white"/>
<path fill-rule="evenodd" clip-rule="evenodd" d="M212.163 365.06L202.341 346.161C200.277 347.024 196.622 348.134 195.23 348.21C193.405 353.895 192.702 362.644 192.421 368.802L212.163 365.06Z" fill="white"/>
<path fill-rule="evenodd" clip-rule="evenodd" d="M165.852 348.876C163.21 357.12 161.373 366.88 160.356 374.882L174.278 372.242C174.66 366.626 177.033 351.023 177.304 348.339C177.304 348.339 175.2 348.212 173.059 347.722L173.123 345.906C171.629 346.977 168.814 348.376 165.852 348.876Z" fill="white"/>
<path fill-rule="evenodd" clip-rule="evenodd" d="M192.014 344.848C192.288 344.875 196.639 345.646 200.706 343.009L195.028 332.085C194.049 334.817 192.47 339.841 192.014 344.848Z" fill="white"/>
<path fill-rule="evenodd" clip-rule="evenodd" d="M175.137 344.69C179.599 345.722 186.269 344.529 188.777 341.493C189.754 337.706 191.298 331.982 192.753 327.715L186.096 314.903C182.3 323.081 177.766 333.099 175.137 344.69Z" fill="white"/>
<path fill-rule="evenodd" clip-rule="evenodd" d="M93.6069 347.838C102.427 347.561 108.764 345.537 116.027 341.089L116.341 339.704C120.184 322.773 128.652 304.271 140.291 292.121C141.044 291.332 143.453 289.388 144.526 288.356C142.928 289.413 139.238 291.359 138.182 291.709C134.83 292.827 132.146 292.643 129.998 291.572C128.713 290.935 127.27 289.643 126.616 287.181C105.737 301.468 97.0572 332.482 94.8767 342.175C94.3741 344.65 93.8041 347.351 93.6069 347.838Z" fill="white"/>
<path fill-rule="evenodd" clip-rule="evenodd" d="M145.988 348.571C142.639 360.62 139.936 371.206 138.327 379.056L156.843 375.545C157.835 367.239 159.784 357.049 162.494 348.453C161.325 348.252 156.385 347.843 156.385 347.843L156.725 345.049C153.704 346.98 149.952 348.016 145.988 348.571Z" fill="white"/>
<path fill-rule="evenodd" clip-rule="evenodd" d="M233.145 321.399L248.157 328.949L241.84 307.952L233.145 321.399Z" fill="white"/>
<path fill-rule="evenodd" clip-rule="evenodd" d="M211.017 310.149L225.678 317.602L225.298 299.729L211.017 310.149Z" fill="white"/>
<path fill-rule="evenodd" clip-rule="evenodd" d="M218.058 366.159C223.728 352.002 235.703 340.445 249.472 333.941C249.654 333.852 183.977 301.316 183.977 301.316L218.058 366.159Z" fill="white"/>
<path fill-rule="evenodd" clip-rule="evenodd" d="M229.11 416.755L274.083 337.956L318.653 416.755H229.11ZM318.104 423.34C325.536 413.849 329.978 401.924 329.978 388.97C329.978 363.665 313.04 342.235 289.877 335.353C284.803 333.848 279.445 333.025 273.891 333.025C268.395 333.025 263.09 333.834 258.07 335.312C258.076 335.326 258.076 335.336 258.08 335.353C234.92 342.235 217.974 363.665 217.974 388.97C217.974 401.924 222.419 413.849 229.848 423.34C240.131 436.343 256.038 444.928 273.891 444.928C291.84 444.928 307.83 436.465 318.104 423.34Z" fill="white"/>
<path fill-rule="evenodd" clip-rule="evenodd" d="M274.067 346.677L236.521 412.469H311.272L274.067 346.677Z" fill="white"/>
<path fill-rule="evenodd" clip-rule="evenodd" d="M52.38 394.72L52.4713 394.801C54.4026 396.433 59.5327 400.778 62.3916 407.89C62.9738 409.336 64.0442 412.57 64.4315 415.08C64.4811 415.418 64.4857 415.715 64.5105 416.028C68.0599 413.884 72.1027 410.492 77.2626 405.39C80.1186 384.707 85.7304 365.372 93.7221 351.084C93.0091 351.111 89.5161 351.121 89.5161 351.121C89.5161 351.121 90.096 346.617 90.5669 344.931C84.7067 348.585 78.1335 351.695 68.5481 351.795C61.8291 362.654 55.7863 370.182 49.0156 392.818C50.0022 393.223 51.3712 393.867 52.38 394.72Z" fill="white"/>
<path fill-rule="evenodd" clip-rule="evenodd" d="M81.1649 401.514C81.1649 401.514 79.4507 411.139 79.4507 413.423C79.4507 413.423 89.7583 415.333 105.845 397.227C105.873 397.041 106.03 395.983 106.089 395.6L83.0641 391.405C81.9396 396.816 81.1649 401.514 81.1649 401.514Z" fill="white"/>
<path fill-rule="evenodd" clip-rule="evenodd" d="M180.694 348.102C180.058 351.244 178.065 366.281 177.678 371.599L189.059 369.44C189.32 363.309 190.028 354.248 191.813 348.132C190.42 347.914 189.285 347.926 188.666 347.512C188.666 347.512 188.679 345.973 188.738 344.78C185.25 347.387 183.309 347.696 180.694 348.102Z" fill="white"/>
<path fill-rule="evenodd" clip-rule="evenodd" d="M160.872 341.178L160.07 345.195C166.219 346.815 170.558 343.842 172.245 342.156C175.383 331.366 179.644 320.4 184.048 310.962L178.643 300.569C172.208 311.59 164.754 327.729 160.872 341.178Z" fill="white"/>
<path fill-rule="evenodd" clip-rule="evenodd" d="M162.511 291.511C163.246 292.14 166.311 292.783 169.706 292.104C169.37 291.917 166.038 289.599 165.091 288.893C164.617 289.296 163.209 290.883 162.511 291.511Z" fill="white"/>
<path fill-rule="evenodd" clip-rule="evenodd" d="M145.966 259.677C140.064 261.713 128.059 261.666 126.673 260.566C118.432 269.302 110.993 278.578 109.579 283.888V284.334C109.579 285.273 109.881 285.881 110.571 286.305C112.702 287.613 118.578 287.079 126.917 282.987C130.486 278.117 144.23 261.843 145.966 259.677Z" fill="white"/>
<path fill-rule="evenodd" clip-rule="evenodd" d="M61.4187 348.075C76.0406 350.079 83.8076 345.497 91.6413 340.341C93.4397 332.824 97.6427 318.876 103.108 309.301C106.305 303.684 109.08 297.651 118.06 289.696C114.117 290.544 110.927 290.365 108.84 289.084C107.797 288.439 107.058 287.556 106.653 286.478C99.5143 288.794 94.2979 290.074 90.5537 289.863C79.8362 300.829 72.4393 318.898 63.9496 341.355C63.2194 343.257 61.6533 347.401 61.4187 348.075Z" fill="white"/>
<path fill-rule="evenodd" clip-rule="evenodd" d="M107.792 384.843C110.604 370.14 114.629 356.933 118.588 351.064C117.878 351.072 114.605 351.064 114.605 351.064C114.605 351.064 114.837 346.764 115.115 345.349C109.593 348.253 103.952 349.981 97.7092 350.697C90.9308 360.629 86.0937 377.977 83.4965 389.448L107.792 384.843Z" fill="white"/>
<path fill-rule="evenodd" clip-rule="evenodd" d="M136.732 346.877C133.188 349.962 128.282 350.681 122.949 350.947C119.052 354.195 114.624 367.815 111.404 384.161L134.981 379.693C136.554 371.775 139.1 361.125 142.469 348.948C140.59 349.083 138.693 349.134 136.824 349.134L136.732 346.877Z" fill="white"/>
<path fill-rule="evenodd" clip-rule="evenodd" d="M161.005 294.034C159.534 293.705 159.048 293.039 158.763 292.255C154.359 292.931 148.401 293.073 145.88 290.527C134.793 301.312 126.044 314.376 119.355 339.546C118.624 342.299 118.387 345.751 118.153 347.8C126.169 347.771 135.407 347.323 137.72 340.427C143.08 321.797 148.442 305.522 161.005 294.034Z" fill="white"/>
<path fill-rule="evenodd" clip-rule="evenodd" d="M173.244 294.926C169.172 295.967 165.09 295.353 163.977 295.303C151.603 306.319 146.657 321.28 140.949 341.088C140.691 342.075 139.916 345.352 140.029 345.855C146.724 345.791 153.26 344.372 157.781 340.037C162.335 324.28 169.525 308.044 176.764 296.945L176.7 296.825C175.573 296.207 174.43 295.58 173.244 294.926Z" fill="white"/>
<path fill-rule="evenodd" clip-rule="evenodd" d="M153.301 277.748C150.309 281.233 148.393 284.249 147.347 286.55C146.354 288.734 150.764 289.8 151.89 289.983C151.89 289.983 158.644 290.677 160.874 288.567C161.631 287.881 162.245 287.166 162.603 286.871C159.577 284.374 156.594 280.808 153.301 277.748Z" fill="white"/>
<path fill-rule="evenodd" clip-rule="evenodd" d="M129.62 285.22C128.838 287.462 131.093 288.822 132.287 289.069C134.1 289.444 137.22 290.003 144.814 284.472C146.272 282.34 149.145 278.904 151.252 275.437C147.53 271.44 146.652 268.122 145.815 266.582C139.861 271.956 131.586 280.906 129.62 285.22Z" fill="white"/>
<path fill-rule="evenodd" clip-rule="evenodd" d="M66.894 281.359C66.7758 283.185 68.49 284.526 69.5823 284.976C72.1968 286.043 77.14 283.656 83.95 280.276C89.137 270.337 101.154 257.245 113.295 246.635C106.07 247.514 100.523 247.874 96.7465 244.478C96.5292 244.28 96.3396 244.223 96.505 244.404C81.6289 255.493 68.7292 270.405 66.894 281.359Z" fill="white"/>
<path fill-rule="evenodd" clip-rule="evenodd" d="M88.1945 285.935C90.7796 287.79 98.3638 285.741 106.376 283.121C108.09 276.578 116.671 265.592 126.147 255.871C126.039 256.162 128.313 253.415 129.218 252.474C122.152 254.031 115.62 253.893 113.842 250.864C113.834 250.845 87.6861 274.179 86.7962 281.913C86.6285 284.121 87.6199 285.523 88.1945 285.935Z" fill="white"/>
<path fill-rule="evenodd" clip-rule="evenodd" d="M140.052 232.184C135.807 233.889 129.968 237.675 123.674 242.592C123.674 242.592 116.674 249.216 116.679 249.223C117.419 250.534 125.753 251.016 136.184 246.941C139.946 243.464 143.288 240.602 145.67 238.825C145.054 237.339 144.274 236.024 143.315 234.899C142.405 233.83 141.299 232.943 140.052 232.184Z" fill="white"/>
<path fill-rule="evenodd" clip-rule="evenodd" d="M99.3783 242.571C102.262 245.58 115.366 243.644 118.364 242.624C124.823 237.339 131.054 232.977 135.997 230.448C133.737 229.791 131.162 229.443 128.232 229.433C119.705 230.521 109.235 235.628 99.3783 242.571Z" fill="white"/>
<path fill-rule="evenodd" clip-rule="evenodd" d="M130.114 257.322C130.53 258.484 142.076 258.484 146.844 255.903C147.552 250.429 147.507 245.861 146.686 242.153C144.35 243.957 132.673 254.705 130.114 257.322Z" fill="white"/>
<path fill-rule="evenodd" clip-rule="evenodd" d="M256.757 331.28V331.226C262.193 329.617 267.938 328.737 273.89 328.737C279.76 328.737 285.434 329.589 290.798 331.158C292.317 331.594 293.81 332.086 295.273 332.641L282.942 251.062L273.939 191.482L264.933 251.047C264.958 251.052 264.985 251.06 265.015 251.062L252.682 332.641C254.017 332.133 255.383 331.69 256.757 331.28Z" fill="white"/>
<path fill-rule="evenodd" clip-rule="evenodd" d="M255.469 286.967C252.667 290.062 242.354 300.21 242.571 299.985L250.022 323.374L255.469 286.967Z" fill="white"/>
<path fill-rule="evenodd" clip-rule="evenodd" d="M60.9769 339.927C69.2297 318.1 76.5407 300.399 86.9665 288.957C86.7371 288.832 86.4835 288.739 86.2685 288.587C84.6528 287.43 83.9646 285.723 83.6787 284.063C76.7845 287.462 72.0241 289.513 68.3271 287.999C66.6544 287.311 65.3373 285.933 64.3309 283.806C63.7713 284.1 63.2312 284.404 62.7032 284.696C59.0431 286.727 55.7796 288.474 49.7119 288.742C49.6946 288.771 49.6774 288.803 49.6601 288.83C37.0881 310.75 30.2558 329.201 27.6166 348.289C37.0832 350.362 47.6943 350.35 60.9769 339.927Z" fill="white"/>
<path fill-rule="evenodd" clip-rule="evenodd" d="M20.9492 432.608C20.9443 432.598 20.9369 432.59 20.9295 432.581C19.452 430.513 17.9524 427.451 17.3555 426.005C14.4326 418.921 15.0764 412.258 15.3156 409.748L15.328 409.631C15.5228 407.562 16.724 405.237 16.9608 404.796L17.0052 404.71L17.0545 404.632C17.1951 404.399 17.3431 404.178 17.5035 403.962C17.2938 403.798 17.0891 403.624 16.9016 403.433L16.8178 403.345L16.7413 403.256C15.6363 401.975 15.2293 400.316 15.6239 398.703C16.0457 396.968 17.2963 395.611 18.68 394.677C18.8897 394.158 19.1856 393.675 19.5556 393.248C19.3509 392.599 19.2276 391.915 19.1931 391.217C19.1141 389.376 19.7012 387.671 20.8037 386.318L20.2783 384.941L19.0032 381.62L22.333 380.309L24.5553 379.434L26.8171 378.503L30.1248 377.143L31.5382 380.41L32.1227 381.762C33.8641 381.973 35.4821 382.794 36.708 384.166C37.1791 384.693 37.5664 385.269 37.8722 385.872C38.4371 385.931 38.9896 386.07 39.5051 386.294C41.1503 386.014 43.0026 386.129 44.5146 387.073C45.3853 387.619 46.0168 388.401 46.4213 389.305C49.9805 377.726 55.4192 364.351 64.7527 351.7C63.0085 351.583 57.6907 350.696 57.6907 350.696C57.6907 350.696 58.3645 346.701 58.9686 345.439C50.7525 350.894 43.5009 352.681 36.8585 352.681C33.3288 352.681 29.9792 352.156 26.7431 351.434C26.7431 351.441 26.7382 351.448 26.7358 351.453C25.4778 353.972 22.7992 359.192 22.7079 359.136C18.611 368.049 14.6324 378.074 11.2458 389.854C10.9153 391.016 10.6045 392.239 10.2789 393.442C6.84552 406.21 4.10517 420.942 2.62524 438.401C3.25175 438.393 6.99595 437.864 8.54005 437.438C13.5619 436.048 17.6539 434.323 20.9492 432.608Z" fill="white"/>
<path fill-rule="evenodd" clip-rule="evenodd" d="M50.9835 462.661L42.1188 436.998C41.9239 436.966 41.734 436.924 41.5441 436.861C40.4169 436.581 38.7618 435.78 35.8809 433.714C35.1212 433.17 34.4799 432.682 33.9274 432.244C32.4474 433.476 30.6567 434.837 29.3223 435.481C25.3216 490.392 30.9379 530.859 35.39 541.283C39.9605 552 47.5649 565.592 47.5649 565.592L54.8511 531.192L57.8678 516.945C52.8927 503.711 51.2549 485.547 51.0255 468.961C51.0255 468.853 50.9835 462.972 50.9835 462.661Z" fill="white"/>
<path fill-rule="evenodd" clip-rule="evenodd" d="M66.8541 508.152L54.5558 472.493C54.7284 479.586 55.3155 487.56 56.1517 494.39C56.1467 494.392 56.1417 494.397 56.1368 494.407C57.0815 502.138 58.5737 509.451 60.934 515.745L70.3171 534.394C70.3171 534.394 72.1253 527.506 72.0042 527.179C70.7044 523.568 66.8541 508.152 66.8541 508.152Z" fill="white"/>
<path fill-rule="evenodd" clip-rule="evenodd" d="M251.124 466.463L250.355 461.206L248.786 450.497L233.018 458.503L207.607 471.406C204.756 477.162 198.098 493.668 197.889 499.003C200.38 498.517 203.133 498.245 206.127 498.167C207.577 485.816 222.589 471.585 251.124 466.463Z" fill="white"/>
<path fill-rule="evenodd" clip-rule="evenodd" d="M179.544 485.657C178.094 487.368 175.043 493.563 175.154 499.63C175.275 506.308 177.658 512.376 180.114 516.451C180.538 512.286 181.91 508.776 184.273 506.004C188.131 501.483 194.558 499.805 194.558 499.805C194.558 494.977 199.457 481.702 202.893 473.798L179.544 485.657Z" fill="white"/>
<path fill-rule="evenodd" clip-rule="evenodd" d="M191.796 565.355C201.418 555.155 211.523 546.301 220.834 537.734C230.469 528.88 239.577 520.529 248.102 513.386L246.97 497.42C245.066 506.899 222.921 538.068 205.591 538.068C202.629 540.091 199.597 543.225 196.393 546.531C190.787 552.326 184.43 558.886 176.819 560.772L176.419 560.83C171.427 561.439 167.066 559.415 165.329 557.8C164.952 561.531 177.778 577.549 191.796 565.355Z" fill="white"/>
<path fill-rule="evenodd" clip-rule="evenodd" d="M292.593 462.652L295.049 445.392C288.461 447.861 281.331 449.216 273.889 449.216C266.348 449.216 259.129 447.821 252.469 445.292L254.793 461.155L257.41 479.001L274.081 592.747L290.449 477.716L292.593 462.652Z" fill="white"/>
<path fill-rule="evenodd" clip-rule="evenodd" d="M94.3911 526.678C95.5209 524.677 96.7365 519.52 96.0091 517.469C95.2742 515.415 87.8053 504.649 85.2328 500.636C83.1336 497.352 58.3447 451.412 49.3863 434.793C48.8931 435.008 45.8049 436.248 45.208 436.459C51.4632 454.253 68.971 504.135 69.7924 507.262C70.7936 511.073 73.8767 524.844 75.0186 526.638C76.1633 528.42 80.7537 531.036 83.7723 531.307C86.7891 531.577 93.2562 528.668 94.3911 526.678Z" fill="white"/>
<path fill-rule="evenodd" clip-rule="evenodd" d="M266.801 573.388L253.368 481.787L251.639 469.978C231.307 473.806 211.373 483.101 209.461 498.221C212.507 498.449 215.514 499.213 218.434 499.988C222.743 501.14 226.86 502.355 231.006 501.757C231.695 501.657 232.383 501.522 233.073 501.316C238.665 499.63 243.729 490.499 246.092 485.068L248.879 477.599L254.865 562.119L254.614 562.55C232.36 601.302 240.591 637.702 251.703 668.255C253.368 671.227 254.964 672.51 261.846 681.651C264.403 685.049 268.579 689.367 271.009 692.024C271.186 692.208 271.359 692.386 271.51 692.552C271.685 692.754 271.855 692.932 272.013 693.099V687.447V681.922C244.461 640.284 252.258 603.659 266.801 573.388Z" fill="white"/>
<path fill-rule="evenodd" clip-rule="evenodd" d="M61.1052 281.837C61.9242 281.379 62.8021 280.903 63.7226 280.428C65.7203 269.778 76.7456 256.125 90.2078 245.135C84.1776 245.96 79.4218 244.855 76.7185 241.816C63.6678 251.489 47.7983 266.57 44.5251 284.393C45.021 284.812 46.6242 285.471 48.5703 285.518C54.5566 285.437 57.4696 283.849 61.1052 281.837Z" fill="white"/>
<path fill-rule="evenodd" clip-rule="evenodd" d="M145.824 232.782C154.035 241.854 148.113 260.668 148.967 265.586C150.459 272.411 158.976 279.566 165.892 285.35C168.092 287.359 177.112 293.557 183.984 296.924L206.822 308.021L229.223 291.376V319.401L230.481 320.048L242.572 299.985L240.142 261.197C233.9 274.075 225.168 283.179 214.937 288.264C209.651 290.891 201.169 292.373 201.169 292.373C201.169 292.373 216.826 267.657 217.667 266.108C211.346 269.816 199.893 273.982 195.146 275.281C192.449 275.883 188.475 276.302 184.581 274.992C183.377 274.584 176.449 271.556 170.058 264.385C166.637 260.258 162.505 253.549 161.719 247.954C160.271 237.634 156.648 230.417 150.895 224.673C145.755 219.551 138.333 218.352 138.331 218.363C134.103 217.431 129.375 217.353 124.166 218.159C124.615 220.335 126.6 223.764 128.842 226.17C136.476 226.295 142.063 228.623 145.824 232.782Z" fill="white"/>
<path fill-rule="evenodd" clip-rule="evenodd" d="M96.253 240.382L97.2127 240.066C106.524 233.474 116.41 228.477 124.989 226.683C123.114 224.265 121.493 221.343 120.971 218.888C110.643 221.822 94.5855 229.163 79.4385 239.892C82.796 243.218 90.0649 242.446 96.253 240.382Z" fill="white"/>
<path fill-rule="evenodd" clip-rule="evenodd" d="M259.574 189.558C256.143 187.848 252.614 186.095 249.143 184.767V210.293C250.478 212.51 260.24 227.883 263.491 232.419L269.255 194.106C266.947 193.074 261.824 190.673 259.574 189.558Z" fill="white"/>
<path fill-rule="evenodd" clip-rule="evenodd" d="M202.187 268.151C206.023 267.958 212.724 265.757 220.911 260.334L226.056 256.926C226.056 256.926 211.809 282.414 208.514 287.345C222.215 282.988 233.386 270.823 240.246 252.612L243.462 245.601L245.768 291.357C249.234 287.776 253.058 284.409 256.205 280.856L260.314 253.556H260.311L262.652 237.994C258.821 232.593 249.365 217.091 248.975 216.432C248.03 231.53 243.186 242.17 234.24 248.85L230.528 251.622C230.528 251.622 233.441 242.731 232.521 231.437C232.148 226.839 231.443 222.051 230.555 217.213C227.81 231.625 222.307 243.795 212.246 247C211.464 248.4 210.124 250.36 207.48 253.468C207.471 253.463 198.594 262.481 188.057 265.221C188.057 265.221 194.946 268.517 202.187 268.151Z" fill="white"/>
<path fill-rule="evenodd" clip-rule="evenodd" d="M239.166 145.144C227.955 143.282 218.185 141.758 209.217 139.753C209.152 140.577 208.978 141.361 208.726 142.11C208.731 142.194 208.753 142.27 208.748 142.356C208.679 143.282 209.279 144.257 210.164 145.267C216.257 152.239 240.68 158.92 261.052 160.322L267.05 160.892C254.224 154.702 244.935 149.029 239.166 145.144Z" fill="white"/>
<path fill-rule="evenodd" clip-rule="evenodd" d="M221.618 200.246C222.309 192.024 219.568 179.477 219.568 179.477L222.58 180.97C233.122 186.212 240.743 195.727 245.852 204.314V180.171L248.02 180.884C252.393 182.329 256.791 184.518 261.043 186.628C262.346 187.275 263.663 187.92 264.987 188.557C260.947 183.721 247.761 161.533 247.761 161.533L247.875 161.521C231.869 159.149 213.37 154.493 207.396 147.654C206.944 147.136 206.589 146.609 206.279 146.073C204.152 148.264 201.109 149.683 197.939 149.987C198.371 155.295 200.874 162.597 203.378 167.543L203.551 167.893V176.228L204.021 176.882C204.108 176.997 204.189 177.117 204.273 177.235C208.365 182.925 211.764 187.922 209.391 193.676C211.438 197.643 215.832 206.196 216.904 215.695C219.546 211.788 221.088 206.579 221.618 200.246Z" fill="white"/>
<path fill-rule="evenodd" clip-rule="evenodd" d="M245.839 211.123C241.553 202.702 234.461 191.895 224.097 185.55C225.137 191.766 225.362 197.326 224.859 202.24C224.08 209.775 221.559 215.769 217.455 220.156C217.24 228.432 217.649 233.619 214.056 242.814C222.881 238.244 226.413 223.898 228.707 208.26C228.736 208.064 229.61 199.781 229.637 199.586C229.637 199.586 234.858 220.521 235.655 229.311C236.094 234.153 236.24 238.832 235.712 243.206C242.463 236.23 245.783 225.669 245.839 211.123Z" fill="white"/>
<path fill-rule="evenodd" clip-rule="evenodd" d="M196.203 146.832C200.901 146.832 205.958 143.718 205.968 139.008L184.328 133.094C187.469 141.051 192.362 146.832 196.203 146.832Z" fill="white"/>
<path fill-rule="evenodd" clip-rule="evenodd" d="M273.143 135.492H274.815C287.72 135.492 296.967 135.47 306.362 133.98L312.492 131.485C299.961 129.755 287.064 128.866 274.147 128.893C261.382 128.861 248.31 129.736 235.881 131.424L242.513 134.13C251.618 135.482 260.625 135.492 273.143 135.492Z" fill="white"/>
<path fill-rule="evenodd" clip-rule="evenodd" d="M200.261 168.663C197.694 163.485 195.037 155.797 194.64 149.921C188.725 148.688 182.914 139.753 180.025 131.615C174.471 129.63 169.762 127.571 165.87 125.427L200.261 171.783V168.663Z" fill="white"/>
<path fill-rule="evenodd" clip-rule="evenodd" d="M191.26 165.167L161.694 125.317C161.694 125.317 154.871 122.84 142.773 127.66C130.909 132.388 129.414 145.956 133.72 156.274C134.285 155.061 134.873 154.215 135.827 153.238C137.97 151.046 141.004 149.792 145.116 149.926C153.08 150.167 158.396 152.73 163.536 155.205C166.015 156.404 168.368 157.526 171.01 158.425C171.01 158.425 186.221 163.209 191.26 165.167Z" fill="white"/>
<path fill-rule="evenodd" clip-rule="evenodd" d="M185.01 166.349C180.963 165.168 171.721 162.128 171.721 162.128C169.57 164.175 140.068 165.253 132.165 164.106C124.262 162.952 118.298 159.528 109.201 155.304C118.737 170.262 135.191 177.918 158.138 178.18C161.337 169.103 172.618 166.077 185.01 166.349Z" fill="white"/>
<path fill-rule="evenodd" clip-rule="evenodd" d="M201.344 178.788L200.587 177.742L195.289 170.593C180.976 168.317 163.628 169.503 160.918 180.266C159.093 187.542 159.484 194.435 162.129 201.226C167.072 190.205 172.868 183.912 184.925 183.895H184.974C193.343 183.895 201.13 186.458 206.805 190.992C207.42 187.625 205.32 184.332 201.63 179.19C201.534 179.053 201.443 178.928 201.344 178.788Z" fill="white"/>
<path fill-rule="evenodd" clip-rule="evenodd" d="M274.067 346.677L311.272 412.469H236.521L274.067 346.677ZM274.087 337.955L229.111 416.755H318.655L274.087 337.955Z" fill="white"/>
<path fill-rule="evenodd" clip-rule="evenodd" d="M230.904 116.415C234.706 116.54 237.895 113.57 238.023 109.789C238.082 108.078 237.48 106.519 236.474 105.292C234.935 106.294 233.102 106.877 231.134 106.877C229.156 106.877 227.318 106.289 225.774 105.284C224.864 106.395 224.292 107.796 224.238 109.335C224.114 113.114 227.104 116.29 230.904 116.415Z" fill="white"/>
<path fill-rule="evenodd" clip-rule="evenodd" d="M231.135 91.0762C227.756 91.0762 225.006 93.8014 225.006 97.1534C225.006 100.508 227.756 103.239 231.135 103.239C234.511 103.239 237.254 100.508 237.254 97.1534C237.254 93.8014 234.511 91.0762 231.135 91.0762Z" fill="white"/>
<path fill-rule="evenodd" clip-rule="evenodd" d="M273.982 125.625V125.623H274.012H274.137H274.288C274.243 125.623 274.194 125.625 274.147 125.625C289.11 125.588 304.049 126.767 318.432 129.066L321.587 127.784C321.591 125.12 321.597 120.359 321.594 120.136C320.395 120.606 319.093 120.874 317.731 120.874C313.958 120.874 310.653 118.891 308.785 115.921C307.017 118.445 304.079 120.109 300.754 120.109C295.352 120.109 290.959 115.747 290.959 110.392C290.959 105.023 295.352 100.666 300.754 100.666C304.079 100.666 307.014 102.325 308.785 104.849C309.032 104.452 309.306 104.07 309.606 103.714C308.45 102.46 307.616 100.921 307.244 99.2003C298.68 99.4331 291.601 101.398 284.462 105.53C285.222 107.03 285.664 108.719 285.664 110.51C285.664 116.629 280.65 121.618 274.488 121.618C268.324 121.618 263.309 116.629 263.309 110.51C263.309 108.895 263.662 107.366 264.289 105.981C256.872 101.526 249.588 99.4355 240.701 99.198C240.42 100.497 239.873 101.69 239.13 102.744C239.843 103.57 240.42 104.504 240.849 105.516C242.546 102.619 245.691 100.666 249.294 100.666C254.694 100.666 259.087 105.023 259.087 110.392C259.087 115.747 254.694 120.109 249.294 120.109C245.38 120.109 242.001 117.801 240.442 114.487C238.604 117.903 234.934 120.189 230.786 120.053C228.625 119.981 227.369 119.364 226.341 119.065L226.338 127.541L229.925 128.999C244.162 126.753 259.22 125.598 273.982 125.625Z" fill="white"/>
<path fill-rule="evenodd" clip-rule="evenodd" d="M255.422 110.389C255.422 107.032 252.679 104.305 249.295 104.305C245.926 104.305 243.183 107.032 243.183 110.389C243.183 113.739 245.926 116.464 249.295 116.464C252.679 116.464 255.422 113.739 255.422 110.389Z" fill="white"/>
<path fill-rule="evenodd" clip-rule="evenodd" d="M233.679 87.7803C234.858 88.0959 235.956 88.6277 236.913 89.3286L239.205 87.8096L233.679 87.7803Z" fill="white"/>
<path fill-rule="evenodd" clip-rule="evenodd" d="M224.455 90.0666C225.632 88.9736 227.085 88.1624 228.698 87.753C228.698 87.753 225.528 87.8387 224.166 87.5915C222.795 87.3414 221.764 86.9297 221.764 86.9297C222.904 87.7386 223.831 88.8092 224.455 90.0666Z" fill="white"/>
<path fill-rule="evenodd" clip-rule="evenodd" d="M227.923 61.8234L227.322 60.3998L226.478 61.2329C226.961 61.4215 227.443 61.625 227.923 61.8234Z" fill="white"/>
<path fill-rule="evenodd" clip-rule="evenodd" d="M215.701 52.6445L218.207 58.4964C219.827 58.9253 221.443 59.4175 223.066 59.9763L225.954 57.1337L221.732 47.079L215.701 52.6445Z" fill="white"/>
<path fill-rule="evenodd" clip-rule="evenodd" d="M251.751 72.9407L249.835 74.8443C250.998 75.7487 252.165 76.6675 253.325 77.6334L251.751 72.9407Z" fill="white"/>
<path fill-rule="evenodd" clip-rule="evenodd" d="M224.302 44.7035L228.468 54.6306L233.555 49.5779L229.534 39.8779L224.302 44.7035Z" fill="white"/>
<path fill-rule="evenodd" clip-rule="evenodd" d="M229.839 57.8943L232.404 63.8859C233.245 64.2953 234.088 64.6995 234.929 65.1479L238.679 61.9351L234.912 52.8508L229.839 57.8943Z" fill="white"/>
<path fill-rule="evenodd" clip-rule="evenodd" d="M238.017 66.8558C239.225 67.559 240.429 68.3041 241.635 69.0734L240.002 65.1304L238.017 66.8558Z" fill="white"/>
<path fill-rule="evenodd" clip-rule="evenodd" d="M242.612 62.8578L246.681 72.4935C246.847 72.6113 247.019 72.7211 247.19 72.8511L250.591 69.4692L247.071 58.9907L242.612 62.8578Z" fill="white"/>
<path fill-rule="evenodd" clip-rule="evenodd" d="M237.762 78.6167L220.042 82.4568C220.042 82.4568 221.69 83.9028 224.961 84.5375C228.231 85.1769 250.07 84.5375 250.07 84.5375L239.242 91.7204C240.08 92.9479 240.63 94.379 240.83 95.9107C250.235 96.1803 258.19 98.4864 266.063 103.226C267.311 101.804 268.915 100.707 270.73 100.06C270.747 100.05 270.76 100.045 270.772 100.032C251.222 76.2203 229.233 62.173 208.094 59.8525L237.762 78.6167Z" fill="white"/>
<path fill-rule="evenodd" clip-rule="evenodd" d="M221.929 100.447C220.521 101.496 218.779 102.136 216.883 102.136C215.654 102.136 214.488 101.866 213.432 101.393C215.523 104.947 217.817 108.356 220.205 111.624C220.205 111.588 220.558 112.049 221.088 112.759C220.723 111.644 220.533 110.451 220.575 109.213C220.657 106.733 221.614 104.493 223.131 102.741C222.635 102.038 222.23 101.268 221.929 100.447Z" fill="white"/>
<path fill-rule="evenodd" clip-rule="evenodd" d="M251.628 140.91C251.176 140.761 250.683 140.589 250.177 140.408H250.173L250.158 140.405C231.858 133.982 180.86 111.302 176.435 110.946C171.887 110.579 167.439 117.838 166.791 122.192C179.646 129.458 198.39 135.21 232.14 140.972C239.391 141.925 246.591 142.319 251.628 140.91Z" fill="white"/>
<path fill-rule="evenodd" clip-rule="evenodd" d="M216.883 98.4925C219.522 98.4925 221.673 96.3629 221.673 93.7532C221.673 91.1308 219.522 88.9989 216.883 88.9989C214.251 88.9989 212.105 91.1308 212.105 93.7532C212.105 96.3629 214.251 98.4925 216.883 98.4925Z" fill="white"/>
<path fill-rule="evenodd" clip-rule="evenodd" d="M208.629 92.0037C208.945 90.5456 209.638 89.2324 210.6 88.1636L204.863 80.5765C205.746 84.5121 207.041 88.3229 208.629 92.0037Z" fill="white"/>
<path fill-rule="evenodd" clip-rule="evenodd" d="M269.433 93.4169L264.089 74.819L257.547 81.3033C261.582 84.9594 265.554 89.0082 269.433 93.4169Z" fill="white"/>
<path fill-rule="evenodd" clip-rule="evenodd" d="M207.554 78.6859L213.227 86.1942C214.334 85.66 215.573 85.3588 216.883 85.3588C216.944 85.3588 212.978 80.9575 212.978 80.9575L229.102 76.9972L203.247 60.6611C203.235 61.2643 203.218 61.8599 203.226 62.4843L219.778 75.6323L207.554 78.6859Z" fill="white"/>
<path fill-rule="evenodd" clip-rule="evenodd" d="M203.414 66.8175C203.466 67.5649 203.475 68.2802 203.545 69.0472C203.545 71.4683 203.722 73.8532 204.048 76.1886L212.543 74.0688L203.414 66.8175Z" fill="white"/>
<path fill-rule="evenodd" clip-rule="evenodd" d="M256.74 77.4797L263.052 71.226L260.926 63.8252L254.355 70.3532L256.74 77.4797Z" fill="white"/>
<path fill-rule="evenodd" clip-rule="evenodd" d="M211.041 56.9456C212.102 57.11 213.167 57.3331 214.231 57.5487L213.138 55.0126L211.041 56.9456Z" fill="white"/>
<path fill-rule="evenodd" clip-rule="evenodd" d="M253.192 66.8862L259.889 60.2305L257.042 50.3298L249.759 56.6503L253.192 66.8862Z" fill="white"/>
<path fill-rule="evenodd" clip-rule="evenodd" d="M237.432 50.3506L241.295 59.6655L245.944 55.6241L242.488 45.3215L237.432 50.3506Z" fill="white"/>
<path fill-rule="evenodd" clip-rule="evenodd" d="M266.924 55.9766L268.497 49.6786L264.827 44.1987L266.924 55.9766Z" fill="white"/>
<path fill-rule="evenodd" clip-rule="evenodd" d="M220.381 43.8619L215.367 31.9104C214.114 32.8959 212.932 33.9348 211.886 35.0744C211.003 36.0374 210.187 37.0545 209.442 38.1325L214.326 49.4591L220.381 43.8619Z" fill="white"/>
<path fill-rule="evenodd" clip-rule="evenodd" d="M211.762 51.8205L207.362 41.6185C205.228 45.7772 203.961 50.6786 203.468 56.3028C204.56 56.3344 205.65 56.3615 206.748 56.4471L211.762 51.8205Z" fill="white"/>
<path fill-rule="evenodd" clip-rule="evenodd" d="M248.635 53.2898L256.041 46.8544L252.69 35.1869L245.095 42.7349L248.635 53.2898Z" fill="white"/>
<path fill-rule="evenodd" clip-rule="evenodd" d="M236.074 47.0734L241.325 41.8511L238.032 32.0338L232.105 37.5039L236.074 47.0734Z" fill="white"/>
<path fill-rule="evenodd" clip-rule="evenodd" d="M262.401 30.5797L263.756 38.172L265.509 32.9617L262.401 30.5797Z" fill="white"/>
<path fill-rule="evenodd" clip-rule="evenodd" d="M228.196 36.6512L224.182 26.9639C221.997 27.8389 219.952 28.8192 218.118 29.9634L222.954 41.4912L228.196 36.6512Z" fill="white"/>
<path fill-rule="evenodd" clip-rule="evenodd" d="M236.894 28.6266L235.31 23.9069C232.442 24.3996 229.741 25.0171 227.262 25.8111L230.769 34.2778L236.894 28.6266Z" fill="white"/>
<path fill-rule="evenodd" clip-rule="evenodd" d="M243.031 22.9579C241.506 23.0631 240.056 23.2396 238.611 23.4213L239.541 26.1805L243.031 22.9579Z" fill="white"/>
<path fill-rule="evenodd" clip-rule="evenodd" d="M243.931 39.2672L251.652 31.5916L249.096 22.708C248.748 22.7109 248.435 22.7448 248.09 22.75L240.685 29.5821L243.931 39.2672Z" fill="white"/>
<path fill-rule="evenodd" clip-rule="evenodd" d="M257.984 5.72327L258.722 9.88189L261.506 5.72327H257.984Z" fill="white"/>
<path fill-rule="evenodd" clip-rule="evenodd" d="M267.934 16.6115H280.019L286.785 12.1315L282.498 5.72595H265.462L261.17 12.1315L267.934 16.6115Z" fill="white"/>
<path fill-rule="evenodd" clip-rule="evenodd" d="M259.644 15.0469L261.114 23.3227L264.75 18.4385L259.644 15.0469Z" fill="white"/>
<path fill-rule="evenodd" clip-rule="evenodd" d="M274.012 20.0242H273.945L268.033 20.1294L262.759 26.7091L268.001 30.7453H279.957L285.2 26.7091L279.929 20.1294L274.012 20.0242Z" fill="white"/>
</g>
<defs>
<clipPath id="clip0_33_733">
<rect width="532" height="557" fill="white"/>
</clipPath>
</defs>
</svg>
