<svg width="258" height="501" viewBox="0 0 258 501" fill="none" xmlns="http://www.w3.org/2000/svg">
<g opacity="0.5" clip-path="url(#clip0_33_974)">
<path fill-rule="evenodd" clip-rule="evenodd" d="M136.329 436.437C137.03 432.93 138.265 409.536 138.179 401.006L117.869 404.702C117.489 411.154 116.239 423.216 116.239 423.216C118.293 433.364 127.215 458.953 128.17 461.71C131.786 456.157 134.25 446.83 136.329 436.437Z" fill="white"/>
<path fill-rule="evenodd" clip-rule="evenodd" d="M125.778 464.742C124.501 461.003 121.052 451.137 120.544 449.686C111.23 445.26 99.5838 442.802 86.1481 441.376C86.8859 441.672 88.6963 442.418 88.8617 442.488C102.137 448.049 115.34 455.327 125.778 464.742Z" fill="white"/>
<path fill-rule="evenodd" clip-rule="evenodd" d="M94.9795 521.959C94.9795 521.959 100.825 521.666 104.88 518.471C109.276 515.016 112.485 507.914 109.695 497.802C106.072 484.657 93.3022 468.616 84.5681 460.303C84.5681 460.303 98.7756 485.272 100.573 491.801C102.712 499.57 101.528 503.664 100.448 508.007C99.054 513.631 96.2251 519.025 94.9795 521.959Z" fill="white"/>
<path fill-rule="evenodd" clip-rule="evenodd" d="M84.3238 410.815L61.7597 414.924L72.6126 436.436C79.5778 433.934 85.8236 425.303 84.3238 410.815Z" fill="white"/>
<path fill-rule="evenodd" clip-rule="evenodd" d="M101.161 439.732C103.98 437.725 110.117 429.804 113.139 422.464C113.701 417.394 114.217 410.841 114.525 405.315L90.9326 409.609C95.5501 419.382 98.7416 430.186 101.161 439.732Z" fill="white"/>
<path fill-rule="evenodd" clip-rule="evenodd" d="M148.366 479.461C148.499 479.349 148.64 479.228 148.763 479.133C152.727 476.131 157.233 473.805 162.117 472.33C162.941 469.514 163.646 466.566 164.265 463.54C168.197 444.175 167.985 420.884 164.993 398.791C164.942 398.424 164.707 396.868 164.608 396.194L141.462 400.409C141.628 408.222 141.094 417.421 140.286 427.844C139.962 431.941 138.951 439.364 139.255 441.761C141.075 454.33 143.581 463.976 146.94 474.567C147.387 475.994 147.873 477.682 148.366 479.461Z" fill="white"/>
<path fill-rule="evenodd" clip-rule="evenodd" d="M192.79 401.514C192.79 401.514 192.011 396.816 190.885 391.405L167.833 395.605C167.914 396.088 168.102 397.173 168.109 397.227C184.196 415.333 194.506 413.423 194.506 413.423C194.506 411.139 192.79 401.514 192.79 401.514Z" fill="white"/>
<path fill-rule="evenodd" clip-rule="evenodd" d="M193.59 438.846C193.59 437.456 193.59 436.065 193.571 434.705C193.445 426.404 193.006 422.39 192.488 416.67C184.748 415.47 179.906 412.556 168.769 402.337C170.368 415.827 172.183 438.081 168.039 461.592C167.467 464.83 166.789 468.087 165.977 471.353C168.12 470.912 170.333 470.643 172.585 470.537L174.879 460.906L175.663 459.958L178.517 456.488L174.386 458.005L173.189 458.446L173.416 457.199L176.685 439.201L176.912 437.949L177.878 438.787L181.235 441.689L179.82 437.469L179.428 436.309L180.639 436.53L193.59 438.846Z" fill="white"/>
<path fill-rule="evenodd" clip-rule="evenodd" d="M135.266 481.36C127.045 466.473 113.583 457.898 96.9858 449.764C103.579 456.803 108.102 464.594 112.486 472.21C117.145 480.297 120.142 489.016 126.87 495.895C128.589 497.866 131.542 499.63 133.776 500.559C133.833 500.368 133.885 500.166 133.947 499.978C134.877 497.079 137.321 492.484 139.46 489.095C137.837 486.333 136.155 482.924 135.266 481.36Z" fill="white"/>
<path fill-rule="evenodd" clip-rule="evenodd" d="M183.205 439.722L186.19 449.079L178.896 442.859L176.788 454.475L185.805 451.324L179.525 459.364L191.675 461.542L188.656 451.831L195.94 458.016L198.066 446.331L189.053 449.604L195.114 441.859L183.205 439.722Z" fill="white"/>
<path fill-rule="evenodd" clip-rule="evenodd" d="M139.008 379.712L162.504 384.17C159.296 368.057 154.868 354.155 151.005 350.947C145.67 350.68 140.769 349.962 137.225 346.877L137.131 349.133C135.266 349.133 133.369 349.079 131.485 348.945C134.825 361.016 137.437 371.851 139.008 379.712Z" fill="white"/>
<path fill-rule="evenodd" clip-rule="evenodd" d="M187.16 281.913C186.272 274.177 160.122 250.845 160.114 250.864C158.338 253.893 151.802 254.031 144.742 252.472C145.643 253.413 147.919 256.162 147.809 255.871C157.285 265.592 165.868 276.578 167.583 283.119C175.594 285.739 183.176 287.79 185.764 285.935C186.341 285.521 187.33 284.122 187.16 281.913Z" fill="white"/>
<path fill-rule="evenodd" clip-rule="evenodd" d="M212.535 348.075C212.301 347.401 210.738 343.257 210.01 341.355C201.52 318.898 194.118 300.829 183.398 289.863C179.657 290.074 174.442 288.794 167.304 286.478C166.897 287.556 166.162 288.439 165.119 289.084C163.029 290.365 159.835 290.544 155.894 289.696C164.874 297.651 167.649 303.684 170.848 309.301C176.312 318.876 180.517 332.824 182.318 340.341C190.146 345.497 197.914 350.079 212.535 348.075Z" fill="white"/>
<path fill-rule="evenodd" clip-rule="evenodd" d="M158.84 345.349C159.124 346.763 159.351 351.064 159.351 351.064C159.351 351.064 156.081 351.071 155.37 351.064C159.287 356.877 163.199 370.331 166.001 384.831L190.476 389.477C187.879 378.006 183.028 360.629 176.247 350.696C170.006 349.981 164.36 348.253 158.84 345.349Z" fill="white"/>
<path fill-rule="evenodd" clip-rule="evenodd" d="M174.16 390.509C174.16 390.509 56.2102 367.642 56.277 367.824C58.5042 374.124 60.2974 382.005 60.2974 388.972C60.2974 396.844 58.9826 404.365 56.2154 411.258C56.1831 411.344 174.16 390.509 174.16 390.509Z" fill="white"/>
<path fill-rule="evenodd" clip-rule="evenodd" d="M48.2801 317.601L62.9412 310.149L48.6547 299.727L48.2801 317.601Z" fill="white"/>
<path fill-rule="evenodd" clip-rule="evenodd" d="M55.8963 366.159L89.9767 301.316C89.9767 301.316 24.2829 333.842 24.4581 333.929C38.2385 340.425 50.2212 351.992 55.8963 366.159Z" fill="white"/>
<path fill-rule="evenodd" clip-rule="evenodd" d="M61.7915 365.06L81.5831 368.817C81.2972 362.636 80.5496 353.89 78.727 348.21C77.331 348.134 73.6802 347.024 71.6184 346.161L61.7915 365.06Z" fill="white"/>
<path fill-rule="evenodd" clip-rule="evenodd" d="M214.989 345.439C215.594 346.701 216.267 350.695 216.267 350.695C216.267 350.695 210.947 351.583 209.201 351.7C226.333 374.908 230.373 400.614 233.679 413.051C235.245 418.957 238.991 421.866 242.151 424.89C243.429 426.115 250.323 433.252 265.413 437.44C266.96 437.866 270.704 438.396 271.331 438.4C269.85 420.942 267.115 406.209 263.677 393.441C263.351 392.239 263.045 391.016 262.71 389.854C259.326 378.073 255.347 368.048 251.248 359.136C251.159 359.192 248.478 353.972 247.222 351.453C247.222 351.448 247.215 351.443 247.213 351.435C243.977 352.159 240.63 352.681 237.097 352.681C230.457 352.681 223.201 350.897 214.989 345.439Z" fill="white"/>
<path fill-rule="evenodd" clip-rule="evenodd" d="M73.2528 343.01C77.3152 345.647 81.6687 344.872 81.9448 344.847C81.4837 339.838 79.9078 334.815 78.9308 332.087L73.2528 343.01Z" fill="white"/>
<path fill-rule="evenodd" clip-rule="evenodd" d="M25.8034 328.947L40.8098 321.396L32.3299 307.952L25.8034 328.947Z" fill="white"/>
<path fill-rule="evenodd" clip-rule="evenodd" d="M179.081 342.175C176.901 332.482 168.218 301.467 147.341 287.18C146.688 289.643 145.242 290.934 143.96 291.574C141.811 292.642 139.128 292.829 135.775 291.709C134.715 291.358 131.03 289.415 129.429 288.357C130.502 289.388 132.914 291.334 133.667 292.12C145.304 304.271 153.769 322.773 157.614 339.704L157.93 341.089C165.194 345.539 171.531 347.561 180.351 347.838C180.148 347.35 179.584 344.652 179.081 342.175Z" fill="white"/>
<path fill-rule="evenodd" clip-rule="evenodd" d="M117.047 375.544L135.531 379.052C133.928 371.261 131.293 360.512 127.971 348.57C124.002 348.019 120.255 346.98 117.229 345.052L117.572 347.845C117.572 347.845 112.629 348.254 111.465 348.453C114.155 357.003 116.045 367.249 117.047 375.544Z" fill="white"/>
<path fill-rule="evenodd" clip-rule="evenodd" d="M81.2008 327.715C82.6562 331.982 84.2003 337.704 85.1819 341.493C87.6858 344.529 94.3575 345.722 98.817 344.69C96.1904 333.099 91.6542 323.081 87.8558 314.903L81.2008 327.715Z" fill="white"/>
<path fill-rule="evenodd" clip-rule="evenodd" d="M84.9306 369.452L96.2942 371.607C95.9045 366.289 93.9016 351.24 93.26 348.1C90.6507 347.693 88.7048 347.385 85.217 344.78C85.2787 345.971 85.2885 347.51 85.2885 347.51C84.6718 347.924 83.5374 347.914 82.1414 348.127C83.9443 354.298 84.6718 363.296 84.9306 369.452Z" fill="white"/>
<path fill-rule="evenodd" clip-rule="evenodd" d="M155.806 347.8C155.569 345.751 155.335 342.299 154.602 339.546C147.915 314.376 139.164 301.314 128.079 290.529C125.558 293.075 119.602 292.933 115.196 292.257C114.907 293.039 114.422 293.708 112.954 294.034C125.519 305.522 130.879 321.796 136.241 340.426C138.549 347.322 147.784 347.77 155.806 347.8Z" fill="white"/>
<path fill-rule="evenodd" clip-rule="evenodd" d="M-44.89 416.755L0.0831375 337.956L44.6534 416.755H-44.89ZM44.1041 423.34C51.5355 413.849 55.9778 401.924 55.9778 388.97C55.9778 363.665 39.0399 342.235 15.8769 335.353C10.8029 333.848 5.44534 333.025 -0.108795 333.025C-5.60471 333.025 -10.9098 333.834 -15.9296 335.312C-15.9245 335.326 -15.9245 335.336 -15.9198 335.353C-39.0805 342.235 -56.0259 363.665 -56.0259 388.97C-56.0259 401.924 -51.5808 413.849 -44.1516 423.34C-33.8688 436.343 -17.962 444.928 -0.108795 444.928C17.8401 444.928 33.8304 436.465 44.1041 423.34Z" fill="white"/>
<path fill-rule="evenodd" clip-rule="evenodd" d="M0.0668449 346.677L-37.4788 412.469H37.2725L0.0668449 346.677Z" fill="white"/>
<path fill-rule="evenodd" clip-rule="evenodd" d="M163.385 286.305C164.075 285.881 164.379 285.273 164.379 284.334V283.888C162.963 278.578 155.524 269.302 147.283 260.566C145.897 261.666 133.897 261.71 127.989 259.677C129.726 261.842 143.472 278.117 147.042 282.984C155.381 287.079 161.256 287.613 163.385 286.305Z" fill="white"/>
<path fill-rule="evenodd" clip-rule="evenodd" d="M99.6562 372.245L113.718 374.911C112.692 366.905 110.739 357.095 108.104 348.876C105.144 348.376 102.33 346.977 100.833 345.906L100.897 347.724C98.7611 348.212 96.6544 348.339 96.6544 348.339C96.9259 351.044 99.311 366.768 99.6562 372.245Z" fill="white"/>
<path fill-rule="evenodd" clip-rule="evenodd" d="M177.206 244.478C173.431 247.876 167.892 247.514 160.665 246.634C172.803 257.245 184.822 270.336 190.009 280.276C196.815 283.653 201.755 286.042 204.372 284.976C205.464 284.526 207.176 283.185 207.061 281.359C205.23 270.405 192.328 255.496 177.452 244.407C177.615 244.223 177.422 244.279 177.206 244.478Z" fill="white"/>
<path fill-rule="evenodd" clip-rule="evenodd" d="M137.962 230.447C142.907 232.979 149.135 237.341 155.59 242.627C158.589 243.644 171.692 245.58 174.58 242.571C164.724 235.628 154.25 230.523 145.724 229.432C142.798 229.445 140.218 229.791 137.962 230.447Z" fill="white"/>
<path fill-rule="evenodd" clip-rule="evenodd" d="M130.641 234.899C129.681 236.024 128.904 237.338 128.285 238.823C130.67 240.602 134.013 243.467 137.777 246.944C148.203 251.017 156.537 250.534 157.28 249.223C157.285 249.216 150.279 242.592 150.279 242.592C143.985 237.678 138.149 233.89 133.909 232.184C132.656 232.943 131.553 233.83 130.641 234.899Z" fill="white"/>
<path fill-rule="evenodd" clip-rule="evenodd" d="M-17.2427 331.28V331.226C-11.8067 329.617 -6.06181 328.737 -0.109964 328.737C5.76003 328.737 11.4335 329.589 16.798 331.158C18.3174 331.594 19.8096 332.086 21.2725 332.641L8.94232 251.062L-0.0609531 191.482L-9.06653 251.047C-9.04175 251.052 -9.01467 251.06 -8.98469 251.062L-21.3178 332.641C-19.9834 332.133 -18.6168 331.69 -17.2427 331.28Z" fill="white"/>
<path fill-rule="evenodd" clip-rule="evenodd" d="M43.4653 459.285L24.902 449.374L22.9958 462.799L22.4627 466.462C50.9959 471.587 66.0121 485.815 67.46 498.166C70.4572 498.247 73.202 498.517 75.6984 499.002C75.4914 493.667 68.8289 477.162 65.9752 471.405L43.4653 459.285Z" fill="white"/>
<path fill-rule="evenodd" clip-rule="evenodd" d="M98.4315 499.63C98.5474 493.563 95.4913 487.368 94.0434 485.657L70.6903 473.798C74.1285 481.702 79.0272 494.977 79.0272 499.805C79.0272 499.805 85.4523 501.481 89.3124 506.005C91.6756 508.776 93.0469 512.286 93.4688 516.452C95.9329 512.376 98.3105 506.306 98.4315 499.63Z" fill="white"/>
<path fill-rule="evenodd" clip-rule="evenodd" d="M25.8681 513.388C34.3924 520.531 43.4988 528.881 53.1332 537.736C62.4443 546.302 72.5571 555.157 82.172 565.356C96.1939 577.551 109.023 561.533 108.645 557.801C106.909 559.417 102.546 561.441 97.5507 560.826L97.1536 560.774C89.5371 558.888 83.1829 552.322 77.5769 546.532C74.3751 543.221 71.3438 540.093 68.3765 538.069C51.0513 538.069 28.9091 506.899 27.0024 497.422L25.8681 513.388Z" fill="white"/>
<path fill-rule="evenodd" clip-rule="evenodd" d="M142.298 491.174C139.297 495.578 137.197 500.633 136.228 506.073L153.731 510.37C160.235 509.551 167.43 510.908 171.199 512.832C174.568 514.548 174.878 515.369 174.878 515.369L182.609 517.126C190.122 515.976 199.073 518.758 202.238 521.894L211.756 524.235C212.873 520.628 213.475 516.795 213.475 512.827C213.475 511.227 213.367 509.659 213.177 508.115L142.298 491.174Z" fill="white"/>
<path fill-rule="evenodd" clip-rule="evenodd" d="M21.9497 469.978L20.5537 479.988L7.25168 573.584C21.718 603.803 29.3811 640.336 1.93848 681.853V687.447C1.94366 687.447 1.9506 687.447 1.95809 687.447V693.099C2.11602 692.932 2.28894 692.748 2.46128 692.553C2.70048 692.288 2.97945 691.995 3.27053 691.69C3.83021 691.081 4.46423 690.403 5.14034 689.672C7.4511 687.189 10.2362 684.164 12.128 681.652C19.0095 672.51 20.6055 671.228 22.2679 668.255C33.3796 637.703 41.6157 601.308 19.3548 562.551L19.1081 562.119L25.0922 477.601L27.8819 485.068C30.2371 490.499 35.3111 499.63 40.8975 501.316C41.588 501.522 42.2762 501.656 42.9621 501.757C42.9673 501.769 42.9719 501.779 42.9742 501.789C46.9876 502.262 50.9786 501.1 55.1517 499.99C58.0699 499.216 61.0764 498.449 64.1227 498.221C62.2136 483.1 42.2762 473.808 21.9497 469.978Z" fill="white"/>
<path fill-rule="evenodd" clip-rule="evenodd" d="M18.5927 462.652L21.0493 445.392C14.4611 447.861 7.33053 449.216 -0.111286 449.216C-7.65166 449.216 -14.871 447.821 -21.5306 445.292L-19.2072 461.155L-16.5904 479.001L0.0812378 592.747L16.4491 477.716L18.5927 462.652Z" fill="white"/>
<path fill-rule="evenodd" clip-rule="evenodd" d="M132.168 518.913C132.114 518.773 132.074 518.621 132.01 518.486L132.356 518.621C132.089 516.729 131.941 514.795 131.941 512.828C131.941 510.674 132.232 507.571 132.821 504.496L132.642 503.238C129.494 501.567 127.173 500.398 125.313 498.479C117.919 491.079 114.327 481.989 109.628 473.836C103.622 463.401 97.9052 453.54 87.2667 445.357C87.22 445.338 87.1779 445.318 87.1364 445.299C82.9403 443.556 78.7551 442.008 74.6431 440.598L77.6496 447.328L80.173 452.17C91.6179 461.421 109.801 479.151 115.987 508.238C117.028 513.127 127.119 517.175 132.168 518.913Z" fill="white"/>
<path fill-rule="evenodd" clip-rule="evenodd" d="M271.561 441.683C271.487 441.678 267.308 441.262 265.838 440.938C259.879 439.634 253.345 436.753 247.798 433.322C250.809 482.324 248.938 516.133 241.742 542.379L241.713 542.374L251.811 589.962C263.403 556.857 275.406 514.143 272.557 468.613C272.557 458.955 272.185 450.045 271.561 441.683Z" fill="white"/>
<path fill-rule="evenodd" clip-rule="evenodd" d="M219.288 470.23C219.32 467.98 218.427 432.201 218.247 422.31C210.909 420.823 205.806 418.551 197.335 410.582C197.319 410.557 197.784 414.238 197.896 415.97L195.723 416.345C196.322 422.744 196.448 428.381 196.746 435.178C196.808 436.558 196.84 437.985 196.852 439.435L198.736 439.771L199.95 439.987L199.171 440.938L196.363 444.376L200.483 442.839L201.686 442.388L201.457 443.641L198.184 461.67L197.957 462.922L196.993 462.089L195.947 461.192C195.412 467.745 194.773 473.097 194.433 475.383C205.468 481.181 213.635 491.643 216.257 504.134C216.898 500.999 217.396 497.728 217.805 494.39C218.76 486.57 219.16 478.327 219.288 470.23Z" fill="white"/>
<path fill-rule="evenodd" clip-rule="evenodd" d="M174.552 474.155C162.402 474.155 151.551 479.689 144.415 488.354L212.596 504.648C208.817 487.22 193.224 474.155 174.552 474.155Z" fill="white"/>
<path fill-rule="evenodd" clip-rule="evenodd" d="M176.003 470.529C181.447 470.71 186.633 471.898 191.374 473.923C191.7 471.651 192.299 466.963 192.551 464.615L177.756 462.109L176.003 470.529Z" fill="white"/>
<path fill-rule="evenodd" clip-rule="evenodd" d="M141.741 485.818C142.246 485.208 143.879 483.561 145.552 481.98C145.009 480.275 144.565 478.895 144.346 478.206C142.634 470.092 138.909 463.829 133.557 458.768C132.474 462.579 129.056 467.766 129.056 467.766C133.09 471.854 134.812 473.986 137.634 478.927C138.606 480.603 140.143 483.612 141.492 486.139C141.576 486.029 141.66 485.911 141.741 485.818Z" fill="white"/>
<path fill-rule="evenodd" clip-rule="evenodd" d="M244.292 430.903C241.463 428.712 239.756 427.627 234.796 421.559C232.682 422.407 226.486 422.858 221.896 422.493C222.015 429.433 222.631 460.23 222.631 460.325C222.696 472.6 222.417 485.871 220.656 497.972C219.839 503.591 218.707 508.96 217.139 513.852C217.094 515.763 216.919 517.65 216.628 519.486L218.354 527.644L226.388 565.591C226.388 565.591 233.997 551.999 238.565 541.282C243.141 530.577 248.957 488.145 244.292 430.903Z" fill="white"/>
<path fill-rule="evenodd" clip-rule="evenodd" d="M89.7269 478.556L72.8529 448.288C64.0871 431.259 55.2147 413.404 55.1185 413.624C52.8717 418.592 49.9534 423.196 46.4933 427.336C40.5092 434.496 32.8898 440.267 24.2572 444.078L46.5498 455.976L89.7269 478.556Z" fill="white"/>
<path fill-rule="evenodd" clip-rule="evenodd" d="M18.4902 286.967L23.9313 323.374C23.9313 323.374 31.6071 299.997 31.5973 299.985C28.5015 296.88 21.292 290.062 18.4902 286.967Z" fill="white"/>
<path fill-rule="evenodd" clip-rule="evenodd" d="M127.109 255.903C131.879 258.484 143.423 258.484 143.845 257.322C141.28 254.705 129.606 243.959 127.269 242.156C126.451 245.861 126.407 250.429 127.109 255.903Z" fill="white"/>
<path fill-rule="evenodd" clip-rule="evenodd" d="M24.812 210.293V184.767C21.3416 186.095 17.814 187.848 14.3805 189.558C11.8997 190.786 7.24242 192.945 4.68958 194.057L10.4518 232.345C13.6951 227.832 23.4823 212.508 24.812 210.293Z" fill="white"/>
<path fill-rule="evenodd" clip-rule="evenodd" d="M78.6721 170.592L73.3693 177.74L72.6142 178.787C72.5156 178.924 72.4292 179.049 72.3329 179.179C72.3381 179.179 72.3456 179.184 72.3479 179.191C68.6578 184.33 66.5638 187.624 67.1731 190.993C72.6932 186.58 80.2186 184.055 88.3261 183.921V183.916C88.5457 183.913 88.763 183.896 88.9826 183.896H88.9947H89.0045H89.0541V183.899C101.096 183.921 106.887 190.211 111.825 201.225C114.472 194.436 114.864 187.543 113.036 180.265C110.331 169.504 92.9805 168.318 78.6721 170.592Z" fill="white"/>
<path fill-rule="evenodd" clip-rule="evenodd" d="M63.8883 145.267C64.7736 144.257 65.2105 142.802 65.1414 141.873V141.865C64.9344 141.192 64.7938 140.483 64.739 139.751C55.7686 141.758 45.9198 143.282 34.7089 145.144C29.0407 148.897 20.4795 153.793 6.86163 160.892L12.863 160.346C34.8623 159.674 57.7987 152.239 63.8883 145.267Z" fill="white"/>
<path fill-rule="evenodd" clip-rule="evenodd" d="M-0.857002 135.492H0.815094C13.72 135.492 22.9671 135.47 32.3623 133.98L38.4916 131.485C25.9614 129.755 13.064 128.866 0.147064 128.893C-12.6177 128.861 -25.6904 129.736 -38.1191 131.424L-31.4866 134.13C-22.3824 135.482 -13.3745 135.492 -0.857002 135.492Z" fill="white"/>
<path fill-rule="evenodd" clip-rule="evenodd" d="M89.6293 133.094C83.357 135.143 76.1521 137.111 67.9881 139.01C68.0002 143.72 73.0563 146.832 77.7504 146.832C81.5909 146.832 86.4845 141.051 89.6293 133.094Z" fill="white"/>
<path fill-rule="evenodd" clip-rule="evenodd" d="M69.1835 177.963C69.1812 177.953 69.1737 177.95 69.1685 177.948C69.4204 177.595 69.6792 177.24 69.9334 176.882L70.4043 176.23V167.891L70.5743 167.543C73.0805 162.597 75.5815 155.295 76.0184 149.986C72.8736 149.683 69.8567 148.291 67.7333 146.132C67.4543 146.637 67.1067 147.139 66.6554 147.654C60.6765 154.498 42.1524 159.155 26.135 161.531L26.1967 161.534C26.1967 161.534 13.0099 183.722 8.97 188.557C10.2946 187.92 11.6093 187.273 12.9114 186.626C17.1663 184.516 21.5619 182.33 25.935 180.882L28.1005 180.171V204.317C33.2091 195.727 40.8301 186.212 51.3747 180.97L54.3892 179.477L53.7258 182.754C52.3741 189.449 52.3021 195.578 52.3591 200.246C52.5788 206.638 54.4284 211.789 57.0752 215.695C58.1404 206.197 62.5411 197.641 64.5833 193.676C62.314 188.17 65.3332 183.349 69.1835 177.963Z" fill="white"/>
<path fill-rule="evenodd" clip-rule="evenodd" d="M49.3059 203.739C49.2419 203.779 48.4107 195.26 49.8632 185.553C39.4939 191.895 32.4048 202.702 28.1182 211.125C28.1724 225.67 31.4924 236.232 38.246 243.206C37.7106 238.78 38.2679 231.235 38.7711 226.444C40.1648 216.11 42.8186 205.047 44.3379 199.585C44.3679 199.781 45.2411 208.067 45.2705 208.263C47.5646 223.898 51.3013 239.778 60.4718 243.179C57.0826 234.624 56.7402 228.434 56.5281 220.158C52.6357 216 49.6264 208.579 49.3059 203.739Z" fill="white"/>
<path fill-rule="evenodd" clip-rule="evenodd" d="M43.4251 217.214C42.5375 222.049 41.8366 226.616 41.4815 231.211C40.606 245.313 43.4251 251.623 43.4251 251.623L39.7154 248.851C30.7721 242.171 25.9275 231.53 24.9828 216.432C24.588 217.091 15.0671 232.66 11.301 237.998L13.1189 250.084L17.7531 280.854C20.9031 284.407 24.9384 287.777 28.3968 291.357L30.4955 245.601L33.7094 252.613C40.5668 270.821 51.7373 282.988 65.4439 287.345C62.1487 282.412 47.8974 256.923 47.8974 256.923L53.0474 260.334C61.2311 265.758 67.9351 267.956 71.7681 268.152C79.0076 268.517 85.9019 265.219 85.9019 265.219C75.5424 263.079 69.3761 257.22 64.9609 251.493C64.2975 250.637 62.8248 248.008 62.3337 247.307C50.3021 244.695 46.1659 231.626 43.4251 217.214Z" fill="white"/>
<path fill-rule="evenodd" clip-rule="evenodd" d="M72.7865 292.373C72.7865 292.373 64.3043 290.89 59.021 288.263C48.7924 283.178 40.0554 274.074 33.8177 261.196L31.598 299.984L43.4792 320.048L44.7369 319.398V291.376L67.1361 308.02L89.9711 296.924C96.8451 293.554 105.866 287.359 108.066 285.347C114.984 279.566 123.496 272.41 124.989 265.585C125.842 260.667 119.922 241.853 128.131 232.781C131.895 228.623 137.484 226.295 145.118 226.17C147.358 223.761 149.341 220.335 149.79 218.158C144.58 217.355 139.857 217.43 135.63 218.362C135.624 218.352 128.2 219.55 123.065 224.672C117.308 230.414 113.69 237.636 112.239 247.953C111.45 253.548 107.323 260.258 103.9 264.385C97.5114 271.555 90.5826 274.584 89.3791 274.991C85.4821 276.304 81.5062 275.883 78.8098 275.28C74.0643 273.979 62.612 269.815 56.2907 266.107C57.1288 267.656 72.7865 292.373 72.7865 292.373Z" fill="white"/>
<path fill-rule="evenodd" clip-rule="evenodd" d="M89.9099 310.962C94.3124 320.399 98.5748 331.366 101.71 342.156C103.402 343.841 107.735 346.815 113.887 345.197L113.086 341.178C109.203 327.729 101.749 311.589 95.3113 300.569L89.9099 310.962Z" fill="white"/>
<path fill-rule="evenodd" clip-rule="evenodd" d="M97.2573 296.828L97.1933 296.948C104.432 308.047 111.62 324.279 116.173 340.037C120.697 344.372 127.231 345.791 133.927 345.857C134.038 345.355 133.262 342.078 133.008 341.088C127.299 321.28 122.349 306.319 109.979 295.304C108.87 295.355 104.783 295.968 100.713 294.929C99.5265 295.58 98.3795 296.207 97.2573 296.828Z" fill="white"/>
<path fill-rule="evenodd" clip-rule="evenodd" d="M224.246 288.742C218.175 288.472 214.914 286.727 211.249 284.696C210.726 284.402 210.186 284.1 209.626 283.806C208.615 285.933 207.302 287.31 205.63 287.997C201.933 289.514 197.172 287.46 190.276 284.064C189.99 285.72 189.302 287.431 187.688 288.587C187.472 288.739 187.217 288.832 186.988 288.958C197.417 300.399 204.728 318.098 212.978 339.928C226.263 350.35 236.874 350.36 246.336 348.289C243.699 329.201 236.869 310.748 224.297 288.83C224.277 288.803 224.263 288.771 224.246 288.742Z" fill="white"/>
<path fill-rule="evenodd" clip-rule="evenodd" d="M214.11 418.253C215.272 418.635 218.668 419.302 219.795 419.427C221.004 419.557 229.186 420.432 231.521 419.118C231.322 417.949 230.377 413.793 230.206 413.038C221.167 373.74 213.814 365.386 205.408 351.793C195.825 351.692 189.252 348.585 183.389 344.928C183.858 346.615 184.443 351.121 184.443 351.121C184.443 351.121 180.945 351.109 180.237 351.084C188.224 365.371 193.837 384.707 196.694 405.387C204.234 412.852 209.414 416.702 214.11 418.253Z" fill="white"/>
<path fill-rule="evenodd" clip-rule="evenodd" d="M0.0669785 346.677L37.272 412.469H-37.4787L0.0669785 346.677ZM0.0865669 337.955L-44.8888 416.755H44.6545L0.0865669 337.955Z" fill="white"/>
<path fill-rule="evenodd" clip-rule="evenodd" d="M129.143 284.47C136.738 290.003 139.855 289.445 141.671 289.067C142.865 288.82 145.122 287.46 144.337 285.218C142.371 280.907 134.098 271.955 128.139 266.583C127.305 268.119 126.428 271.44 122.703 275.437C124.81 278.905 127.683 282.341 129.143 284.47Z" fill="white"/>
<path fill-rule="evenodd" clip-rule="evenodd" d="M111.356 286.871C111.709 287.165 112.325 287.88 113.08 288.567C115.31 290.676 122.063 289.983 122.063 289.983C123.195 289.8 127.608 288.736 126.611 286.55C125.563 284.251 123.649 281.232 120.659 277.748C117.362 280.808 114.38 284.374 111.356 286.871Z" fill="white"/>
<path fill-rule="evenodd" clip-rule="evenodd" d="M108.869 288.893C107.922 289.599 104.587 291.917 104.257 292.101C107.646 292.782 110.714 292.143 111.447 291.51C110.749 290.883 109.34 289.295 108.869 288.893Z" fill="white"/>
<path fill-rule="evenodd" clip-rule="evenodd" d="M183.75 245.137C197.212 256.125 208.233 269.778 210.233 280.428C211.15 280.903 212.024 281.379 212.852 281.84C216.485 283.851 219.401 285.439 225.387 285.518C227.329 285.474 228.934 284.812 229.432 284.396C226.159 266.57 210.285 251.491 197.239 241.816C194.534 244.857 189.778 245.962 183.75 245.137Z" fill="white"/>
<path fill-rule="evenodd" clip-rule="evenodd" d="M176.74 240.067L177.7 240.382C183.893 242.446 191.157 243.216 194.519 239.892C179.37 229.164 163.312 221.822 152.985 218.888C152.462 221.344 150.842 224.265 148.969 226.683C157.54 228.477 167.434 233.474 176.74 240.067Z" fill="white"/>
<path fill-rule="evenodd" clip-rule="evenodd" d="M88.9446 166.349C101.339 166.077 112.621 169.103 115.815 178.18C138.766 177.918 155.221 170.262 164.751 155.304C155.658 159.528 149.696 162.952 141.788 164.106C133.888 165.253 104.385 164.175 102.232 162.128C102.232 162.128 92.992 165.168 88.9446 166.349Z" fill="white"/>
<path fill-rule="evenodd" clip-rule="evenodd" d="M43.7287 117.23C47.5346 117.23 50.6304 114.153 50.6304 110.374C50.6304 108.317 49.6903 106.494 48.2378 105.245C46.6862 106.279 44.8238 106.879 42.8186 106.879C41.2923 106.879 39.8513 106.521 38.5613 105.899C37.4962 107.097 36.8373 108.651 36.8373 110.374C36.8373 114.153 39.9303 117.23 43.7287 117.23Z" fill="white"/>
<path fill-rule="evenodd" clip-rule="evenodd" d="M20.627 110.389C20.627 113.739 23.3752 116.464 26.7517 116.464C30.1236 116.464 32.869 113.739 32.869 110.389C32.869 107.032 30.1236 104.305 26.7517 104.305C23.3752 104.305 20.627 107.032 20.627 110.389Z" fill="white"/>
<path fill-rule="evenodd" clip-rule="evenodd" d="M-4.86641 105.281C-6.19846 106.626 -7.0296 108.472 -7.0296 110.509C-7.0296 114.625 -3.65541 117.975 0.485982 117.975C4.62506 117.975 7.9964 114.625 7.9964 110.509C7.9964 106.391 4.62506 103.044 0.485982 103.044C-1.57866 103.044 -3.44791 103.875 -4.80474 105.215C-4.82433 105.237 -4.84681 105.259 -4.86641 105.281Z" fill="white"/>
<path fill-rule="evenodd" clip-rule="evenodd" d="M-0.0176544 125.625V125.623H0.0117416H0.137379H0.287819C0.243435 125.623 0.19445 125.625 0.147186 125.625C15.1098 125.588 30.0494 126.767 44.4321 129.066L47.5867 127.784C47.5913 125.12 47.5965 120.359 47.5942 120.136C46.3953 120.606 45.0932 120.874 43.7312 120.874C39.9576 120.874 36.6525 118.891 34.785 115.921C33.0166 118.445 30.0793 120.109 26.7541 120.109C21.3521 120.109 16.9594 115.747 16.9594 110.392C16.9594 105.023 21.3521 100.666 26.7541 100.666C30.0793 100.666 33.0143 102.325 34.785 104.849C35.0317 104.452 35.3055 104.07 35.6064 103.714C34.4495 102.46 33.6161 100.921 33.2437 99.2003C24.6797 99.4331 17.601 101.398 10.4623 105.53C11.222 107.03 11.6635 108.719 11.6635 110.51C11.6635 116.629 6.64949 121.618 0.487839 121.618C-5.67611 121.618 -10.6907 116.629 -10.6907 110.51C-10.6907 108.895 -10.338 107.366 -9.71145 105.981C-17.1285 101.526 -24.4118 99.4355 -33.2992 99.198C-33.5799 100.497 -34.1275 101.69 -34.8699 102.744C-34.1575 103.57 -33.5799 104.504 -33.1511 105.516C-31.4542 102.619 -28.3094 100.666 -24.7058 100.666C-19.3061 100.666 -14.9134 105.023 -14.9134 110.392C-14.9134 115.747 -19.3061 120.109 -24.7058 120.109C-28.62 120.109 -31.9989 117.801 -33.558 114.487C-35.3956 117.903 -39.066 120.189 -43.2143 120.053C-45.3752 119.981 -46.6306 119.364 -47.6595 119.065L-47.6618 127.541L-44.0755 128.999C-29.8385 126.753 -14.7803 125.598 -0.0176544 125.625Z" fill="white"/>
<path fill-rule="evenodd" clip-rule="evenodd" d="M41.7646 140.909C75.5193 135.145 94.3069 129.457 107.163 122.192C106.519 117.837 99.8817 110.99 96.9957 111.048C94.1051 111.109 39.1155 135.27 22.2519 140.909C27.4245 142.186 33.9337 142.23 41.7646 140.909Z" fill="white"/>
<path fill-rule="evenodd" clip-rule="evenodd" d="M79.3142 149.921C78.9171 155.798 76.2605 163.485 73.6932 168.664V171.783L108.089 125.427C104.192 127.569 99.4811 129.63 93.9333 131.615C91.0381 139.753 85.2315 148.691 79.3142 149.921Z" fill="white"/>
<path fill-rule="evenodd" clip-rule="evenodd" d="M102.949 158.426C105.585 157.527 107.941 156.405 110.42 155.206C115.56 152.729 120.876 150.168 128.835 149.928C132.952 149.79 136.023 150.798 138.469 152.876C139.424 153.689 139.88 154.234 140.445 155.446C143.743 142.931 142.309 131.46 131.186 127.662C120.059 123.865 112.262 125.319 112.262 125.319L82.6959 165.168C87.737 163.21 102.949 158.426 102.949 158.426Z" fill="white"/>
<path fill-rule="evenodd" clip-rule="evenodd" d="M34.749 87.81L37.035 89.3244C37.9999 88.6235 39.0898 88.0946 40.2691 87.7806L34.749 87.81Z" fill="white"/>
<path fill-rule="evenodd" clip-rule="evenodd" d="M52.2053 86.9185C52.2053 86.9185 51.0605 87.4405 49.6968 87.7102C48.7423 87.8964 46.0632 87.9332 45.6592 87.8545C47.114 88.2932 48.4241 89.0705 49.5095 90.0824C50.1308 88.8129 51.0634 87.7349 52.2053 86.9185Z" fill="white"/>
<path fill-rule="evenodd" clip-rule="evenodd" d="M-1.71109 74.2318L-0.0539569 95.3245L1.59396 74.2318H-1.71109Z" fill="white"/>
<path fill-rule="evenodd" clip-rule="evenodd" d="M46.0338 61.8234C46.5151 61.625 46.9959 61.4215 47.4743 61.2329H47.4495L46.6062 60.3998L46.0338 61.8234Z" fill="white"/>
<path fill-rule="evenodd" clip-rule="evenodd" d="M23.339 69.4717L26.7374 72.8507H26.7674C26.9202 72.7357 27.0758 72.6305 27.236 72.5201L31.3105 62.8598L26.8585 58.9904L23.339 69.4717Z" fill="white"/>
<path fill-rule="evenodd" clip-rule="evenodd" d="M2.39752 51.0121H-2.44418L-4.86676 60.6966L-2.44418 70.3891H2.39752L4.82184 60.6966L2.39752 51.0121Z" fill="white"/>
<path fill-rule="evenodd" clip-rule="evenodd" d="M40.3708 49.5748L45.4569 54.6309L49.6208 44.7009L44.3941 39.8782L40.3708 49.5748Z" fill="white"/>
<path fill-rule="evenodd" clip-rule="evenodd" d="M55.7131 58.501L58.229 52.6439L52.1936 47.079L47.9732 57.1314L50.869 59.9861C52.487 59.4272 54.1049 58.9374 55.7131 58.501Z" fill="white"/>
<path fill-rule="evenodd" clip-rule="evenodd" d="M3.3851 99.7956C5.38807 100.332 7.16684 101.398 8.55537 102.844C16.2116 98.3812 23.9762 96.1757 33.1097 95.9159C33.3097 94.3773 33.8671 92.9388 34.7058 91.713L23.8897 84.5375C23.8897 84.5375 44.7886 85.2143 48.9969 84.5375C53.2022 83.8666 53.9152 82.4597 53.9152 82.4597L36.1928 78.6173L65.8604 59.8525C44.7961 62.1661 22.8931 76.1346 3.3851 99.7956Z" fill="white"/>
<path fill-rule="evenodd" clip-rule="evenodd" d="M42.8191 103.238C46.1962 103.238 48.9364 100.508 48.9364 97.1534C48.9364 93.8009 46.1962 91.0762 42.8191 91.0762C39.4351 91.0762 36.6874 93.8009 36.6874 97.1534C36.6874 100.508 39.4351 103.238 42.8191 103.238Z" fill="white"/>
<path fill-rule="evenodd" clip-rule="evenodd" d="M20.6333 77.6334C21.7901 76.6681 22.9568 75.7487 24.1263 74.8472L22.1752 72.9407L20.6333 77.6334Z" fill="white"/>
<path fill-rule="evenodd" clip-rule="evenodd" d="M32.3192 69.0734C33.525 68.3035 34.7314 67.559 35.9424 66.8552L33.925 65.1304L32.3192 69.0734Z" fill="white"/>
<path fill-rule="evenodd" clip-rule="evenodd" d="M59.7271 57.5493C60.7905 57.3336 61.8562 57.1106 62.9139 56.9461L60.7905 55.0126L59.7271 57.5493Z" fill="white"/>
<path fill-rule="evenodd" clip-rule="evenodd" d="M52.0111 100.45C51.7252 101.244 51.3401 101.994 50.864 102.677C52.9633 104.591 54.2924 107.321 54.2924 110.375C54.2924 110.529 54.2728 110.689 54.2682 110.843C56.2291 108.115 58.1156 105.292 59.8794 102.374C60.0765 102.077 60.2766 101.749 60.4812 101.413C59.4379 101.874 58.2857 102.136 57.0678 102.136C55.1709 102.136 53.4192 101.506 52.0111 100.45Z" fill="white"/>
<path fill-rule="evenodd" clip-rule="evenodd" d="M57.069 88.9989C54.4321 88.9989 52.2914 91.1308 52.2914 93.7532C52.2914 96.3629 54.4321 98.4925 57.069 98.4925C59.7054 98.4925 61.8513 96.3629 61.8513 93.7532C61.8513 91.1308 59.7054 88.9989 57.069 88.9989Z" fill="white"/>
<path fill-rule="evenodd" clip-rule="evenodd" d="M65.3164 91.9554C66.89 88.3085 68.1702 84.5374 69.0457 80.6357L63.3555 88.159C64.31 89.225 64.9954 90.5215 65.3164 91.9554Z" fill="white"/>
<path fill-rule="evenodd" clip-rule="evenodd" d="M4.51955 93.4169C8.40214 89.0082 16.7293 80.9796 16.3742 81.3033L9.84255 74.819L4.49017 93.4169H4.51955Z" fill="white"/>
<path fill-rule="evenodd" clip-rule="evenodd" d="M69.878 76.1818C70.2036 73.8492 70.3835 71.4672 70.3835 69.0484C70.4503 68.2883 70.4647 67.5805 70.5143 66.84L61.4153 74.0694L69.878 76.1818Z" fill="white"/>
<path fill-rule="evenodd" clip-rule="evenodd" d="M61.6052 81.288C61.6052 81.288 57.0096 85.3558 57.069 85.3558C58.3837 85.3558 59.6195 85.6622 60.7297 86.194L66.4025 78.6852L54.1784 75.6316L70.7018 62.5066V62.4842C70.7064 61.869 70.692 61.2762 70.6793 60.6805L44.6206 77.2248L61.6052 81.288Z" fill="white"/>
<path fill-rule="evenodd" clip-rule="evenodd" d="M27.9864 55.6235L32.6333 59.6649L36.4934 50.3501L31.4372 45.3215L27.9864 55.6235Z" fill="white"/>
<path fill-rule="evenodd" clip-rule="evenodd" d="M35.2472 61.9351L39.0087 65.1554C39.8422 64.7138 40.6808 64.3096 41.5172 63.9003L44.0873 57.8937L39.011 52.8508L35.2472 61.9351Z" fill="white"/>
<path fill-rule="evenodd" clip-rule="evenodd" d="M24.1641 56.6497L16.8854 50.3298L14.0363 60.2299L20.7357 66.8862L24.1641 56.6497Z" fill="white"/>
<path fill-rule="evenodd" clip-rule="evenodd" d="M19.5727 70.3534L12.999 63.8248L10.8732 71.2256L17.1824 77.4799L19.5727 70.3534Z" fill="white"/>
<path fill-rule="evenodd" clip-rule="evenodd" d="M2.80417 47.7415L7.55942 40.6419L5.33224 34.0133H-5.38003L-7.60489 40.6419L-2.84678 47.7415H2.80417Z" fill="white"/>
<path fill-rule="evenodd" clip-rule="evenodd" d="M7.03381 55.9766L9.13071 44.1987L5.45795 49.6786L7.03381 55.9766Z" fill="white"/>
<path fill-rule="evenodd" clip-rule="evenodd" d="M37.8518 47.0734L41.8203 37.5039L35.8932 32.0338L32.6003 41.8511L37.8518 47.0734Z" fill="white"/>
<path fill-rule="evenodd" clip-rule="evenodd" d="M35.3108 23.4207C33.8703 23.2419 32.4224 23.0654 30.8932 22.9579L34.3856 26.1805L35.3108 23.4207Z" fill="white"/>
<path fill-rule="evenodd" clip-rule="evenodd" d="M33.2423 29.5849L25.8374 22.7528C25.4921 22.7476 25.1792 22.7131 24.8287 22.7108L22.2758 31.5921L29.9961 39.27L33.2423 29.5849Z" fill="white"/>
<path fill-rule="evenodd" clip-rule="evenodd" d="M28.8344 42.7349L21.2398 35.1869L17.8829 46.8515L25.2919 53.2898L28.8344 42.7349Z" fill="white"/>
<path fill-rule="evenodd" clip-rule="evenodd" d="M59.6055 49.4566L64.4864 38.1301C63.7365 37.0544 62.9227 36.035 62.0419 35.0742C60.9912 33.9347 59.8147 32.8957 58.5594 31.908L53.5476 43.8595L59.6055 49.4566Z" fill="white"/>
<path fill-rule="evenodd" clip-rule="evenodd" d="M67.1816 56.4451H67.2116C68.2969 56.3594 69.3817 56.3324 70.4596 56.3002C69.9639 50.676 68.701 45.7751 66.5655 41.6188L62.1647 51.8184L67.1816 56.4451Z" fill="white"/>
<path fill-rule="evenodd" clip-rule="evenodd" d="M50.9711 41.4912L55.8076 29.9634C53.9775 28.8192 51.9279 27.8412 49.7474 26.9639L45.7316 36.6512L50.9711 41.4912Z" fill="white"/>
<path fill-rule="evenodd" clip-rule="evenodd" d="M46.6645 25.8111C44.1877 25.0171 41.4868 24.3996 38.6186 23.9069L37.0347 28.6266L43.1543 34.2778L46.6645 25.8111Z" fill="white"/>
<path fill-rule="evenodd" clip-rule="evenodd" d="M-6.06644 16.6115H6.01936L12.7851 12.1315L8.49842 5.72595H-8.53802L-12.8298 12.1315L-6.06644 16.6115Z" fill="white"/>
<path fill-rule="evenodd" clip-rule="evenodd" d="M0.0116634 20.0242H-0.0546293L-5.96726 20.1294L-11.2407 26.7091L-5.99897 30.7453H5.95657L11.2 26.7091L5.92891 20.1294L0.0116634 20.0242Z" fill="white"/>
<path fill-rule="evenodd" clip-rule="evenodd" d="M10.2007 38.172L11.5546 30.5797L8.44897 32.9617L10.2007 38.172Z" fill="white"/>
<path fill-rule="evenodd" clip-rule="evenodd" d="M12.8381 23.3227L14.313 15.0469L9.25638 18.4408L12.8381 23.3227Z" fill="white"/>
<path fill-rule="evenodd" clip-rule="evenodd" d="M15.9748 5.72327H12.4473L15.2347 9.88189L15.9748 5.72327Z" fill="white"/>
</g>
<defs>
<clipPath id="clip0_33_974">
<rect width="532" height="557" fill="white" transform="translate(-274)"/>
</clipPath>
</defs>
</svg>
