<svg width="190" height="308" viewBox="0 0 190 308" fill="none" xmlns="http://www.w3.org/2000/svg">
<path d="M24.0009 42.2594C31.1515 35.1088 42.7449 35.1088 49.8955 42.2594L184.637 177.001C191.788 184.152 191.788 195.745 184.637 202.896L49.8955 337.637C42.7449 344.788 31.1515 344.788 24.0009 337.637L-110.741 202.896C-117.891 195.745 -117.891 184.152 -110.741 177.001L24.0009 42.2594Z" fill="#E27410"/>
<path opacity="0.3" d="M5.49492 23.1518C12.6774 15.9693 24.3226 15.9693 31.5051 23.1518L166.848 158.495C174.031 165.677 174.031 177.323 166.848 184.505L31.5051 319.848C24.3226 327.031 12.6774 327.031 5.49492 319.848L-129.848 184.505C-137.031 177.323 -137.031 165.677 -129.848 158.495L5.49492 23.1518Z" fill="#E27410"/>
<path opacity="0.15" d="M-12.8955 5.36295C-5.7449 -1.78764 5.84851 -1.78765 12.9991 5.36294L147.741 140.105C154.891 147.255 154.891 158.849 147.741 165.999L12.9991 300.741C5.84851 307.891 -5.7449 307.891 -12.8955 300.741L-147.637 165.999C-154.788 158.849 -154.788 147.255 -147.637 140.105L-12.8955 5.36295Z" fill="#E27410"/>
</svg>
