<svg width="100" height="99" viewBox="0 0 100 99" fill="none" xmlns="http://www.w3.org/2000/svg">
<path d="M34.6371 16.6328C37.4515 13.8184 42.0145 13.8184 44.8289 16.6328L97.8613 69.6651C100.676 72.4795 100.676 77.0425 97.8613 79.8569L44.8289 132.889C42.0145 135.704 37.4515 135.704 34.6371 132.889L-18.3953 79.8569C-21.2096 77.0425 -21.2096 72.4795 -18.3953 69.6651L34.6371 16.6328Z" fill="#E27410"/>
<path opacity="0.3" d="M25.8674 9.11239C28.6943 6.28545 33.2777 6.28545 36.1046 9.11239L89.3738 62.3815C92.2007 65.2085 92.2007 69.7918 89.3738 72.6188L36.1046 125.888C33.2777 128.715 28.6943 128.715 25.8674 125.888L-27.4018 72.6188C-30.2287 69.7918 -30.2287 65.2085 -27.4018 62.3815L25.8674 9.11239Z" fill="#E27410"/>
<path opacity="0.15" d="M17.1432 2.11078C19.9575 -0.703592 24.5205 -0.703594 27.3349 2.11078L80.3673 55.1432C83.1817 57.9575 83.1817 62.5205 80.3673 65.3349L27.3349 118.367C24.5205 121.182 19.9575 121.182 17.1432 118.367L-35.8892 65.3349C-38.7036 62.5205 -38.7036 57.9575 -35.8892 55.1432L17.1432 2.11078Z" fill="#E27410"/>
</svg>
